<svg width="512" height="512" viewBox="0 0 512 512" fill="none" xmlns="http://www.w3.org/2000/svg">
<path d="M427.439 512.001H84.5695C70.1522 512.034 55.9668 508.373 43.3667 501.366C30.7666 494.359 20.1723 484.24 12.5944 471.974C5.01663 459.709 0.708153 445.707 0.0801051 431.303C-0.547943 416.899 2.52539 402.575 9.00686 389.697L180.463 46.6993C186.999 33.4844 196.903 22.2255 209.176 14.0571C221.449 5.88862 235.658 1.09919 250.372 0.171319C266.974 -0.885187 283.52 2.96209 297.952 11.2347C312.385 19.5072 324.067 31.8401 331.546 46.6993L503.002 389.697C509.445 402.579 512.489 416.895 511.844 431.284C511.199 445.674 506.886 459.66 499.315 471.914C491.745 484.167 481.167 494.283 468.587 501.299C456.007 508.315 441.843 511.999 427.439 512.001ZM42.6709 427.585C42.7605 438.655 47.2083 449.245 55.0507 457.059C62.8931 464.874 73.4986 469.284 84.5695 469.334H427.439C438.51 469.284 449.115 464.874 456.958 457.059C464.8 449.245 469.248 438.655 469.338 427.585C469.327 421.052 467.777 414.613 464.815 408.79L293.402 65.7713C289.934 58.8203 284.598 52.9731 277.992 48.8862C271.386 44.7993 263.772 42.6344 256.004 42.6344C248.236 42.6344 240.622 44.7993 234.016 48.8862C227.41 52.9731 222.074 58.8203 218.607 65.7713L47.1509 408.79C44.2032 414.616 42.6685 421.055 42.6709 427.585Z" fill="#FF5555"/>
</svg>
