<svg width="479" height="511" viewBox="0 0 479 511" fill="none" xmlns="http://www.w3.org/2000/svg">
<g filter="url(#filter0_d_25_14)">
<path d="M421.152 88.4813L292.576 14.2413C276.35 4.91056 257.96 0 239.243 0C220.525 0 202.135 4.91056 185.909 14.2413L57.3333 88.4813C41.1387 97.8661 27.6901 111.336 18.3312 127.546C8.97225 143.756 4.03063 162.137 4 180.855V329.335C4.0312 348.055 8.97286 366.439 18.3315 382.652C27.6902 398.865 41.1384 412.339 57.3333 421.729L185.909 495.948C202.133 505.285 220.524 510.199 239.243 510.199C257.961 510.199 276.352 505.285 292.576 495.948L421.152 421.729C437.347 412.339 450.795 398.865 460.154 382.652C469.513 366.439 474.454 348.055 474.485 329.335V180.855C474.455 162.137 469.513 143.756 460.154 127.546C450.795 111.336 437.347 97.8661 421.152 88.4813ZM207.243 51.212C216.972 45.5948 228.008 42.6376 239.243 42.6376C250.477 42.6376 261.513 45.5948 271.243 51.212L399.819 125.431C403.079 127.491 406.143 129.848 408.971 132.471L276.853 208.737C265.415 215.331 252.445 218.802 239.243 218.802C226.04 218.802 213.07 215.331 201.632 208.737L69.5147 132.471C72.3428 129.848 75.4064 127.491 78.6667 125.431L207.243 51.212ZM78.6667 384.759C68.943 379.125 60.8694 371.036 55.2536 361.302C49.6378 351.568 46.6767 340.53 46.6667 329.292V180.855C46.8148 177.011 47.3219 173.19 48.1813 169.441L180.299 245.708C191.967 252.345 204.689 256.927 217.909 259.255V463.393C214.224 462.265 210.653 460.793 207.243 458.999L78.6667 384.759ZM431.819 329.292C431.809 340.53 428.848 351.568 423.232 361.302C417.616 371.036 409.542 379.125 399.819 384.759L271.243 458.999C267.832 460.793 264.261 462.265 260.576 463.393V259.255C273.796 256.927 286.519 252.345 298.187 245.708L430.304 169.441C431.163 173.19 431.671 177.011 431.819 180.855V329.292Z" fill="#FF5555"/>
<path d="M239.243 0.5C257.873 0.500084 276.177 5.38775 292.327 14.6748V14.6738L420.901 88.9131V88.9141C437.02 98.255 450.406 111.662 459.721 127.796C468.745 143.426 473.643 161.084 473.968 179.11L473.985 180.855V329.335C473.954 347.967 469.035 366.265 459.721 382.402C450.697 398.035 437.853 411.109 422.404 420.408L420.902 421.296L292.326 495.515C276.178 504.808 257.874 509.699 239.243 509.699C221.194 509.699 203.451 505.109 187.679 496.373L186.159 495.515L57.583 421.296H57.582C41.4637 411.95 28.0792 398.539 18.7646 382.402C9.74087 366.77 4.8432 349.108 4.51758 331.08L4.5 329.334V180.855C4.53049 162.226 9.44947 143.93 18.7646 127.796C28.0798 111.662 41.4651 98.255 57.584 88.9141L57.583 88.9131L186.157 14.6738L186.158 14.6748C202.308 5.38767 220.613 0.5 239.243 0.5ZM239.243 42.1377C227.921 42.1377 216.798 45.1183 206.993 50.7793L78.417 124.998L78.3994 125.008C75.1132 127.085 72.0254 129.461 69.1748 132.104L68.6777 132.564L69.2646 132.903L201.382 209.17V209.171C212.896 215.808 225.953 219.302 239.243 219.302C252.533 219.302 265.59 215.808 277.104 209.171V209.17L409.221 132.903L409.808 132.564L409.311 132.104C406.46 129.461 403.372 127.085 400.086 125.008L400.068 124.998L271.492 50.7793H271.493C261.688 45.1183 250.565 42.1378 239.243 42.1377ZM218.409 258.835L217.996 258.763C205.243 256.518 192.956 252.165 181.638 245.887L180.546 245.273L48.4316 169.008L47.8447 168.67L47.6943 169.329C46.828 173.108 46.3164 176.961 46.167 180.835V329.292L46.1768 330.354C46.3664 341.312 49.3377 352.048 54.8203 361.552C60.4799 371.362 68.6166 379.514 78.416 385.191H78.417L206.992 459.432L207.01 459.441C210.448 461.251 214.048 462.733 217.763 463.871L218.409 464.069V258.835ZM432.318 180.835C432.169 176.961 431.657 173.108 430.791 169.329L430.641 168.67L430.054 169.008L297.939 245.273C286.321 251.882 273.653 256.445 260.489 258.763L260.076 258.835V464.069L260.723 463.871C264.437 462.733 268.038 461.251 271.476 459.441L271.493 459.432L400.068 385.191H400.069C409.869 379.514 418.005 371.362 423.665 361.552C429.325 351.742 432.308 340.617 432.318 329.292V180.835Z" stroke="black"/>
</g>
<defs>
<filter id="filter0_d_25_14" x="0" y="0" width="478.485" height="518.199" filterUnits="userSpaceOnUse" color-interpolation-filters="sRGB">
<feFlood flood-opacity="0" result="BackgroundImageFix"/>
<feColorMatrix in="SourceAlpha" type="matrix" values="0 0 0 0 0 0 0 0 0 0 0 0 0 0 0 0 0 0 127 0" result="hardAlpha"/>
<feOffset dy="4"/>
<feGaussianBlur stdDeviation="2"/>
<feComposite in2="hardAlpha" operator="out"/>
<feColorMatrix type="matrix" values="0 0 0 0 0 0 0 0 0 0 0 0 0 0 0 0 0 0 0.25 0"/>
<feBlend mode="normal" in2="BackgroundImageFix" result="effect1_dropShadow_25_14"/>
<feBlend mode="normal" in="SourceGraphic" in2="effect1_dropShadow_25_14" result="shape"/>
</filter>
</defs>
</svg>
