<svg width="512" height="512" viewBox="0 0 512 512" fill="none" xmlns="http://www.w3.org/2000/svg">
<g clip-path="url(#clip0_66_83)">
<path d="M256 0C205.368 0 155.873 15.0141 113.774 43.1438C71.6751 71.2734 38.863 111.255 19.487 158.033C0.110921 204.811 -4.95873 256.284 4.91908 305.943C14.7969 355.602 39.1785 401.217 74.9808 437.019C110.783 472.822 156.398 497.203 206.057 507.081C255.716 516.959 307.189 511.889 353.967 492.513C400.745 473.137 440.727 440.325 468.856 398.226C496.986 356.127 512 306.632 512 256C511.927 188.127 484.932 123.055 436.938 75.0618C388.945 27.0683 323.873 0.0734097 256 0ZM256 341.333C133.888 341.333 42.6668 296.299 42.6668 256C42.6668 215.701 133.888 170.667 256 170.667C378.112 170.667 469.333 215.701 469.333 256C469.333 296.299 378.112 341.333 256 341.333ZM256 42.6667C297.736 42.7147 338.544 54.9884 373.383 77.9713C408.221 100.954 435.564 133.64 452.032 171.989C391.532 140.784 324.033 125.638 256 128C187.968 125.638 120.468 140.784 59.9681 171.989C76.4367 133.64 103.779 100.954 138.617 77.9713C173.456 54.9884 214.264 42.7147 256 42.6667ZM256 469.333C214.264 469.285 173.456 457.012 138.617 434.029C103.779 411.046 76.4367 378.361 59.9681 340.011C120.468 371.216 187.968 386.362 256 384C324.033 386.362 391.532 371.216 452.032 340.011C435.564 378.361 408.221 411.046 373.383 434.029C338.544 457.012 297.736 469.285 256 469.333Z" fill="#FF5555"/>
</g>
<defs>
<clipPath id="clip0_66_83">
<rect width="512" height="512" fill="white"/>
</clipPath>
</defs>
</svg>
