<svg width="512" height="512" viewBox="0 0 512 512" fill="none" xmlns="http://www.w3.org/2000/svg">
<path d="M256 0.5C323.74 0.573377 388.685 27.5154 436.585 75.415C484.11 122.941 511.004 187.246 511.493 254.413L511.5 256.001C511.5 306.534 496.515 355.932 468.44 397.948C440.366 439.965 400.462 472.713 353.775 492.051C307.089 511.389 255.716 516.449 206.154 506.591C156.592 496.732 111.066 472.398 75.334 436.666C39.6017 400.934 15.2677 355.408 5.40918 305.846C-4.44934 256.284 0.611054 204.911 19.9492 158.225C39.2874 111.538 72.0351 71.6343 114.052 43.5596C155.412 15.9236 203.925 0.971322 253.632 0.510742L256 0.5ZM337.831 58.4434C298.758 42.2588 255.763 38.0246 214.283 46.2754C172.804 54.5262 134.702 74.8918 104.797 104.797C74.8918 134.702 54.5262 172.804 46.2754 214.283C38.0246 255.763 42.2599 298.757 58.4443 337.83C74.6289 376.903 102.036 410.3 137.201 433.796C172.366 457.292 213.708 469.833 256 469.833H256.001C312.694 469.771 367.047 447.223 407.135 407.135C447.223 367.047 469.771 312.694 469.833 256.001V256C469.833 213.708 457.292 172.365 433.796 137.2C410.3 102.036 376.904 74.6279 337.831 58.4434ZM276.833 149.833V235.167H362.167V276.833H276.833V362.167H235.167V276.833H149.833V235.167H235.167V149.833H276.833Z" fill="#6AFF7C" stroke="black"/>
</svg>
