<svg width="435" height="512" viewBox="0 0 435 512" fill="none" xmlns="http://www.w3.org/2000/svg">
<g filter="url(#filter0_d_27_3)">
<path d="M409.333 85.3333H343.2C338.249 61.2568 325.148 39.6234 306.107 24.0793C287.065 8.53525 263.247 0.0310299 238.667 0L196 0C171.42 0.0310299 147.601 8.53525 128.56 24.0793C109.519 39.6234 96.4181 61.2568 91.4667 85.3333H25.3333C19.6754 85.3333 14.2492 87.581 10.2484 91.5817C6.24761 95.5825 4 101.009 4 106.667C4 112.325 6.24761 117.751 10.2484 121.752C14.2492 125.752 19.6754 128 25.3333 128H46.6667V405.333C46.7005 433.613 57.9495 460.724 77.946 480.721C97.9426 500.717 125.054 511.966 153.333 512H281.333C309.613 511.966 336.724 500.717 356.721 480.721C376.717 460.724 387.966 433.613 388 405.333V128H409.333C414.991 128 420.418 125.752 424.418 121.752C428.419 117.751 430.667 112.325 430.667 106.667C430.667 101.009 428.419 95.5825 424.418 91.5817C420.418 87.581 414.991 85.3333 409.333 85.3333ZM196 42.6667H238.667C251.899 42.6828 264.803 46.792 275.608 54.4308C286.413 62.0696 294.59 72.8638 299.019 85.3333H135.648C140.076 72.8638 148.254 62.0696 159.059 54.4308C169.864 46.792 182.767 42.6828 196 42.6667ZM345.333 405.333C345.333 422.307 338.591 438.586 326.588 450.588C314.586 462.591 298.307 469.333 281.333 469.333H153.333C136.359 469.333 120.081 462.591 108.079 450.588C96.0762 438.586 89.3333 422.307 89.3333 405.333V128H345.333V405.333Z" fill="#B7B7B7"/>
</g>
<defs>
<filter id="filter0_d_27_3" x="0" y="0" width="434.667" height="520" filterUnits="userSpaceOnUse" color-interpolation-filters="sRGB">
<feFlood flood-opacity="0" result="BackgroundImageFix"/>
<feColorMatrix in="SourceAlpha" type="matrix" values="0 0 0 0 0 0 0 0 0 0 0 0 0 0 0 0 0 0 127 0" result="hardAlpha"/>
<feOffset dy="4"/>
<feGaussianBlur stdDeviation="2"/>
<feComposite in2="hardAlpha" operator="out"/>
<feColorMatrix type="matrix" values="0 0 0 0 0 0 0 0 0 0 0 0 0 0 0 0 0 0 0.25 0"/>
<feBlend mode="normal" in2="BackgroundImageFix" result="effect1_dropShadow_27_3"/>
<feBlend mode="normal" in="SourceGraphic" in2="effect1_dropShadow_27_3" result="shape"/>
</filter>
</defs>
</svg>
