<svg width="427" height="512" viewBox="0 0 427 512" fill="none" xmlns="http://www.w3.org/2000/svg">
<path d="M234.667 426.667C262.946 426.633 290.057 415.384 310.054 395.387C330.051 375.391 341.299 348.279 341.333 320V133.184C341.367 121.97 339.174 110.862 334.882 100.502C330.59 90.1419 324.284 80.7369 316.331 72.832L268.501 25.0027C260.596 17.049 251.191 10.7435 240.832 6.45163C230.472 2.15974 219.363 -0.0331758 208.149 4.76699e-06H106.667C78.3873 0.0338791 51.2759 11.2828 31.2794 31.2794C11.2828 51.2759 0.0338743 78.3873 0 106.667V320C0.0338743 348.279 11.2828 375.391 31.2794 395.387C51.2759 415.384 78.3873 426.633 106.667 426.667H234.667ZM42.6667 320V106.667C42.6667 89.6928 49.4095 73.4142 61.4118 61.4118C73.4142 49.4095 89.6928 42.6667 106.667 42.6667C106.667 42.6667 211.605 42.9653 213.333 43.1787V85.3333C213.333 96.6492 217.829 107.502 225.83 115.503C233.832 123.505 244.684 128 256 128H298.155C298.368 129.728 298.667 320 298.667 320C298.667 336.974 291.924 353.253 279.922 365.255C267.919 377.257 251.641 384 234.667 384H106.667C89.6928 384 73.4142 377.257 61.4118 365.255C49.4095 353.253 42.6667 336.974 42.6667 320ZM426.667 170.667V405.333C426.633 433.613 415.384 460.724 395.387 480.721C375.391 500.717 348.279 511.966 320 512H128C122.342 512 116.916 509.752 112.915 505.752C108.914 501.751 106.667 496.325 106.667 490.667C106.667 485.009 108.914 479.582 112.915 475.582C116.916 471.581 122.342 469.333 128 469.333H320C336.974 469.333 353.253 462.591 365.255 450.588C377.257 438.586 384 422.307 384 405.333V170.667C384 165.009 386.248 159.583 390.248 155.582C394.249 151.581 399.675 149.333 405.333 149.333C410.991 149.333 416.418 151.581 420.418 155.582C424.419 159.583 426.667 165.009 426.667 170.667Z" fill="#B7B7B7"/>
</svg>
