<svg width="512" height="512" viewBox="0 0 512 512" fill="none" xmlns="http://www.w3.org/2000/svg">
<g clip-path="url(#clip0_31_7)">
<path d="M234.675 323.606C241.555 325.809 248.888 327 256.5 327C263.751 327 270.749 325.919 277.344 323.912V448.016L325.195 400.185L355.362 430.351L286.176 499.516C278.174 507.515 267.324 512.009 256.01 512.009C244.696 512.009 233.844 507.515 225.843 499.516L156.656 430.351L186.823 400.185L234.675 448.016V323.606ZM111.854 186.822L64.002 234.675H188.082C186.079 241.264 185 248.256 185 255.5C185 263.118 186.193 270.457 188.399 277.343H64.002L111.854 325.195L81.6885 355.361L12.502 286.175C4.50296 278.173 0.00878906 267.323 0.00878906 256.009C0.00880178 244.695 4.50294 233.844 12.502 225.843L81.6885 156.656L111.854 186.822ZM499.517 225.843C507.516 233.844 512.01 244.695 512.01 256.009C512.01 267.323 507.516 278.173 499.517 286.175L430.33 355.361L400.164 325.195L448.017 277.343H324.601C326.807 270.457 328 263.118 328 255.5C328 248.256 326.921 241.264 324.918 234.675H448.017L400.164 186.822L430.33 156.656L499.517 225.843ZM256.01 0.00878906C267.324 0.00891776 278.174 4.50303 286.176 12.502L355.362 81.6885L325.195 111.854L277.344 64.002V187.087C270.749 185.08 263.751 184 256.5 184C248.889 184 241.555 185.19 234.675 187.393V64.002L186.823 111.854L156.656 81.6885L225.843 12.502C233.844 4.50291 244.696 0.00878906 256.01 0.00878906Z" fill="#B7B7B7"/>
<circle cx="256.5" cy="255.5" r="42.5" fill="#B7B7B7"/>
</g>
<defs>
<clipPath id="clip0_31_7">
<rect width="512" height="512" fill="white"/>
</clipPath>
</defs>
</svg>
