<svg width="512" height="491" viewBox="0 0 512 491" fill="none" xmlns="http://www.w3.org/2000/svg">
<g clip-path="url(#clip0_67_4)">
<path d="M31.2541 159.287C41.1408 149.367 52.8967 141.507 65.8413 136.16C78.7859 130.814 92.6623 128.088 106.667 128.14H452.267L360.534 36.4066C356.54 32.3951 354.302 26.9611 354.314 21.3C354.326 15.6389 356.587 10.2144 360.598 6.21991C364.61 2.2254 370.044 -0.0119542 375.705 4.80414e-05C381.366 0.0120503 386.79 2.27242 390.785 6.28391L496.385 111.863C506.383 121.864 512 135.427 512 149.569C512 163.711 506.383 177.274 496.385 187.276L390.785 292.897C388.804 294.884 386.452 296.46 383.861 297.537C381.271 298.614 378.495 299.171 375.69 299.175C372.884 299.179 370.106 298.63 367.513 297.56C364.92 296.491 362.563 294.921 360.577 292.94C358.59 290.959 357.014 288.607 355.937 286.017C354.859 283.427 354.303 280.65 354.299 277.845C354.295 275.04 354.844 272.261 355.914 269.668C356.983 267.075 358.553 264.718 360.534 262.732L452.523 170.807H106.667C89.6935 170.807 73.4149 177.549 61.4125 189.552C49.4102 201.554 42.6674 217.833 42.6674 234.807V384.14C42.6674 401.114 49.4102 417.392 61.4125 429.395C73.4149 441.397 89.6935 448.14 106.667 448.14H405.334C410.992 448.14 416.418 450.388 420.419 454.388C424.42 458.389 426.667 463.815 426.667 469.473C426.667 475.131 424.42 480.557 420.419 484.558C416.418 488.559 410.992 490.807 405.334 490.807H106.667C78.388 490.773 51.2766 479.524 31.2801 459.527C11.2835 439.531 0.0345915 412.419 0.000717163 384.14V234.807C-0.0466353 220.777 2.69152 206.877 8.05642 193.913C13.4213 180.95 21.3063 169.18 31.2541 159.287Z" fill="#B7B7B7"/>
</g>
<defs>
<clipPath id="clip0_67_4">
<rect width="512" height="490.807" fill="white" transform="matrix(-1 0 0 1 512 0)"/>
</clipPath>
</defs>
</svg>
