<svg width="512" height="512" viewBox="0 0 512 512" fill="none" xmlns="http://www.w3.org/2000/svg">
<g clip-path="url(#clip0_31_11)">
<path d="M469.92 255.994C470.087 305.626 452.98 353.774 421.525 392.199C390.07 430.624 346.223 456.938 297.485 466.639C248.748 476.34 198.15 468.824 154.349 445.378C110.547 421.932 76.2653 384.013 57.3681 338.109C38.4709 292.205 36.1332 241.169 50.7549 193.734C65.3767 146.298 96.0491 105.412 137.524 78.0696C178.999 50.7275 228.699 38.6296 278.119 43.8457C327.54 49.0618 373.609 71.2677 408.446 106.664H320.4V149.33H430.254C440.771 149.318 450.853 145.141 458.29 137.714C465.726 130.287 469.909 120.218 469.92 109.715V0H427.2V65.6624C383.482 26.6543 327.684 3.81329 269.131 0.95665C210.577 -1.89999 152.815 15.4008 105.499 49.9677C58.1834 84.5346 24.1799 134.273 9.17167 190.871C-5.83655 247.468 -0.940154 307.496 23.0426 360.921C47.0253 414.347 88.6412 457.933 140.935 484.395C193.229 510.858 253.033 518.593 310.352 506.309C367.67 494.025 419.031 462.465 455.85 416.904C492.669 371.344 512.716 314.543 512.64 255.994H469.92Z" fill="#B7B7B7"/>
<circle cx="256.5" cy="255.5" r="42.5" fill="#B7B7B7"/>
</g>
<defs>
<clipPath id="clip0_31_11">
<rect width="512" height="512" fill="white"/>
</clipPath>
</defs>
</svg>
