<svg width="512" height="512" viewBox="0 0 512 512" fill="none" xmlns="http://www.w3.org/2000/svg">
<g clip-path="url(#clip0_31_9)">
<path d="M193.151 288.683C199.902 301.544 210.455 312.096 223.316 318.848L72.832 469.333H170.667V512H42.667C31.3511 512 20.4986 507.504 12.4971 499.503C4.49552 491.501 0 480.649 0 469.333V341.333H42.667V439.168L193.151 288.683ZM469.333 439.168V341.333H512V469.333C512 480.649 507.504 491.501 499.503 499.503C491.501 507.504 480.649 512 469.333 512H341.333V469.333H439.168L289.025 319.19C301.966 312.569 312.621 302.119 319.501 289.336L469.333 439.168ZM170.667 0V42.667H72.832L222.663 192.498C209.88 199.378 199.43 210.034 192.809 222.974L42.667 72.832V170.667H0V42.667C0 31.3511 4.49552 20.4986 12.4971 12.4971C20.4986 4.49552 31.3511 0 42.667 0H170.667ZM469.333 0C480.649 0 491.501 4.49552 499.503 12.4971C507.504 20.4986 512 31.3511 512 42.667V170.667H469.333V72.832L319.848 222.316C313.096 209.455 302.544 198.902 289.683 192.151L439.168 42.667H341.333V0H469.333Z" fill="#B7B7B7"/>
<circle cx="256.5" cy="255.5" r="42.5" fill="#B7B7B7"/>
</g>
<defs>
<clipPath id="clip0_31_9">
<rect width="512" height="512" fill="white"/>
</clipPath>
</defs>
</svg>
