<svg width="512" height="512" viewBox="0 0 512 512" fill="none" xmlns="http://www.w3.org/2000/svg">
<g clip-path="url(#clip0_67_2)">
<path d="M480.747 180.48C470.86 170.56 459.104 162.7 446.159 157.354C433.215 152.007 419.338 149.281 405.333 149.333H59.7333L151.467 57.6C155.461 53.5885 157.699 48.1545 157.687 42.4934C157.675 36.8323 155.414 31.4078 151.403 27.4133C147.391 23.4188 141.957 21.1815 136.296 21.1935C130.635 21.2055 125.211 23.4658 121.216 27.4773L15.616 133.056C5.61755 143.057 0.000732422 156.621 0.000732422 170.763C0.000732422 184.905 5.61755 198.468 15.616 208.469L121.216 314.091C123.197 316.077 125.549 317.654 128.139 318.731C130.729 319.808 133.506 320.364 136.311 320.368C139.116 320.372 141.895 319.824 144.488 318.754C147.081 317.684 149.438 316.114 151.424 314.133C153.41 312.153 154.987 309.8 156.064 307.21C157.141 304.62 157.698 301.843 157.702 299.038C157.706 296.233 157.157 293.455 156.087 290.862C155.017 288.269 153.447 285.912 151.467 283.925L59.4773 192H405.333C422.307 192 438.586 198.743 450.588 210.745C462.591 222.747 469.333 239.026 469.333 256V405.333C469.333 422.307 462.591 438.586 450.588 450.588C438.586 462.59 422.307 469.333 405.333 469.333H106.667C101.009 469.333 95.5825 471.581 91.5817 475.582C87.581 479.582 85.3333 485.009 85.3333 490.667C85.3333 496.325 87.581 501.751 91.5817 505.752C95.5825 509.752 101.009 512 106.667 512H405.333C433.613 511.966 460.724 500.717 480.721 480.721C500.717 460.724 511.966 433.613 512 405.333V256C512.047 241.97 509.309 228.07 503.944 215.107C498.579 202.143 490.694 190.373 480.747 180.48Z" fill="#B7B7B7"/>
</g>
<defs>
<clipPath id="clip0_67_2">
<rect width="512" height="512" fill="white"/>
</clipPath>
</defs>
</svg>
