<svg width="543" height="506" viewBox="0 0 543 506" fill="none" xmlns="http://www.w3.org/2000/svg">
<path d="M243.13 12.4541C258.887 -3.57805 285.502 -3.56501 301.835 12.9834L301.844 12.9912L354.787 64.2529C363.645 72.8249 363.977 87.0699 355.54 96.0469V96.0479C351.178 100.705 345.358 103.042 339.517 103.042C334.028 103.042 328.541 100.996 324.27 96.8359L324.269 96.835L294.594 68.1338L293.746 67.3145V138.372L293.995 138.517L389.878 194.194H389.879C414.349 208.385 429.558 235.011 429.558 263.651V371.927L429.795 372.073L486.021 406.846L487.165 407.553L486.761 406.271L476.869 374.856H476.87C473.228 363.2 479.399 350.746 490.695 346.757L491.237 346.573C502.669 342.856 514.947 349.112 518.877 360.621L519.059 361.173L541.128 431.407L541.225 431.717C546.893 455.986 533.076 478.866 510.746 484.38L510.729 484.384L510.714 484.389L448.039 504.442C445.824 505.14 443.588 505.477 441.398 505.477C431.973 505.477 423.25 499.339 420.282 489.731C416.626 477.868 423.121 465.248 434.761 461.516L434.76 461.515L469.709 450.362L470.744 450.032L469.819 449.461L410.176 412.596L409.921 412.438L409.661 412.588L310.678 470.06H310.677C298.646 477.074 285.129 480.548 271.634 480.548C258.138 480.548 244.622 477.074 232.591 470.06H232.59L133.605 412.611L133.347 412.461L133.092 412.618L73.4023 449.507L72.4775 450.078L73.5137 450.408L108.484 461.538V461.539C120.124 465.271 126.618 477.89 122.963 489.754C119.995 499.362 111.272 505.5 101.847 505.5C99.6573 505.5 97.4205 505.163 95.2051 504.465L31.1045 483.998L31.0879 483.992L31.0713 483.988L30.0928 483.735C9.65418 478.141 -3.67948 455.427 1.69434 432.922L24.1641 361.173C27.885 349.314 40.3927 342.82 51.9844 346.573C63.6232 350.35 70.0522 363.037 66.3525 374.855L56.4834 406.247L56.0811 407.528L57.2236 406.822L113.427 372.097L113.664 371.95V263.651C113.664 235.011 128.873 208.385 153.344 194.194L249.227 138.517L249.476 138.372V67.9287L248.632 68.7285L218.799 96.9922L218.798 96.9932C209.879 105.47 195.873 104.977 187.527 95.8682L187.526 95.8672L187.142 95.4385C179.197 86.3573 179.827 72.4236 188.635 64.0732L188.634 64.0723L243.117 12.4668L243.13 12.4541ZM384.536 265.771L293.995 318.321L293.746 318.466V428.056L294.497 427.62L385.038 375.07L385.287 374.926V265.336L384.536 265.771ZM271.359 177.483L184.35 228.01L183.604 228.442L184.35 228.874L271.36 279.377L271.611 279.522L271.862 279.377L358.872 228.874L359.617 228.442L358.872 228.01L271.862 177.483L271.611 177.338L271.359 177.483ZM249.476 318.466L249.227 318.321L158.686 265.771L157.935 265.336V374.926L158.184 375.07L248.725 427.62L249.476 428.056V318.466Z" fill="#FF5555" stroke="black"/>
</svg>
